<?xml version="1.0" encoding="UTF-8"?>
<svg id="Layer_2" data-name="Layer 2" xmlns="http://www.w3.org/2000/svg" viewBox="0 0 409.57 130.2">
  <defs>
    <style>
      .cls-1 {
        fill: #fff;
      }
    </style>
  </defs>
  <g id="Layer_2-2" data-name="Layer 2">
    <g id="Layer_1-2" data-name="Layer 1-2">
      <path class="cls-1" d="M34.48,55.93c1.33-1.42,2.74-2.8,4.19-4.09.3-.27.62-.55.94-.82.65-.55.78-1.5.32-2.26-.46-.75-1.36-1.1-2.15-.82-.92.32-1.84.67-2.73,1.04-4.41,1.8-8.62,4.15-12.49,6.94-5.08,3.66-9.56,8.01-13.33,12.88-4.18,5.41-7.27,11.15-9.16,17.17-.22.69.07,1.44.74,1.92,4,2.88,8.5,5.27,13.33,7,.44.16.94.18,1.4.05.02,0,.05-.02.07-.02.13-.04.25-.09.37-.15.56-.29.93-.81.99-1.37.53-4.64,1.62-9.3,3.23-13.86,1.76-4.97,4.11-9.76,7.01-14.26,2.14-3.31,4.58-6.46,7.27-9.34h0ZM8.03,57.19s.07.11.12.16c.3.36.74.61,1.21.67.28.04.55,0,.8-.08.23-.08.43-.21.58-.38,2.73-2.93,5.78-5.59,9.07-7.89,3.66-2.55,7.68-4.68,11.88-6.26,3.12-1.17,6.38-2.05,9.68-2.62,1.62-.28,3.28-.48,4.92-.61.35-.03.7-.05,1.05-.07.18,0,.36-.05.52-.13.49-.23.83-.72.89-1.28.08-.77-.37-1.49-1.07-1.72-.77-.25-1.56-.49-2.37-.71-3.95-1.08-8-1.68-12.06-1.78-5.39-.13-10.65.61-15.66,2.19-1.22.38-2.44.82-3.62,1.3-3.99,1.63-7.68,3.8-10.98,6.42-.49.39-.66,1.07-.43,1.72,1.37,3.92,3.21,7.65,5.46,11.06h0ZM36.93,99.88c-1.31-4.29-2.09-8.75-2.28-13.24-.14-3.33.03-6.7.52-10,.24-1.63.56-3.27.95-4.87.08-.34.17-.68.26-1.02.19-.72-.19-1.46-.91-1.78-.42-.19-.9-.19-1.32-.02-.26.11-.48.28-.64.5-.48.65-.96,1.34-1.41,2.03-2.25,3.41-4.08,7.08-5.44,10.89-1.81,5.07-2.76,10.27-2.83,15.51-.08,5.65.9,11.14,2.87,16.32.23.6.83.97,1.53.97,4.2-.05,8.35-.64,12.31-1.73.03,0,.06-.02.1-.03.03,0,.06-.02.09-.03.44-.18.8-.52,1-.94.23-.49.22-1.04-.03-1.47-1.99-3.51-3.6-7.25-4.78-11.1h0ZM77.62,116.1c-4.2-1.95-8.27-4.43-12.11-7.37-4.18-3.2-8.03-6.91-11.43-11.06-2.5-3.06-4.74-6.35-6.65-9.8-.94-1.7-1.82-3.47-2.6-5.25-.16-.37-.33-.76-.49-1.15-.33-.79-1.19-1.21-2.06-1.01-.11.03-.21.06-.32.1-.69.29-1.14.97-1.13,1.69.02.97.07,1.95.14,2.92.35,4.76,1.28,9.48,2.75,14.03,1.93,5.98,4.74,11.58,8.27,16.68,3.92,5.65,8.49,10.36,13.59,14.03.41.3.94.37,1.46.19.2-.07.38-.17.55-.3,3.87-2.95,7.45-6.49,10.55-10.53.3-.39.47-.89.47-1.39,0-.13,0-.27-.03-.4-.1-.62-.47-1.14-.98-1.37h.02ZM101.96,98.07c-3.96.81-8.01,1.18-12.02,1.09-4.48-.09-8.93-.76-13.26-1.97-3.21-.9-6.35-2.11-9.34-3.59-1.47-.73-2.93-1.54-4.33-2.4-.3-.18-.59-.37-.89-.56-.42-.27-.95-.3-1.42-.09-.21.09-.4.23-.55.41-.51.57-.57,1.42-.14,2.02.48.66.98,1.32,1.5,1.97,2.55,3.19,5.48,6.06,8.68,8.54,4.25,3.29,8.88,5.81,13.79,7.53,5.3,1.85,10.74,2.67,16.24,2.43.16,0,.32-.04.47-.11.43-.18.77-.56.93-1.05,1.31-4.02,2.1-8.18,2.32-12.32v-.2c-.03-.47-.23-.93-.58-1.26-.39-.37-.91-.54-1.4-.44ZM121.17,65.7c-.28-.4-.7-.71-1.18-.86-.13-.04-.26-.07-.39-.09-.62-.08-1.24.12-1.61.52-3.15,3.41-6.76,6.55-10.74,9.32-4.33,3.01-9.07,5.57-14.06,7.52-3.69,1.44-7.51,2.55-11.38,3.3-1.91.37-3.86.65-5.8.85-.4.04-.82.08-1.24.11-.2.02-.39.07-.57.15-.57.27-.96.84-1.02,1.5-.08.88.45,1.69,1.26,1.93.93.28,1.87.54,2.81.77,4.63,1.15,9.4,1.73,14.18,1.74,6.28.02,12.49-.92,18.45-2.76,1.65-.51,3.29-1.09,4.87-1.73h0c4.68-1.89,8.99-4.32,12.8-7.17.58-.44.79-1.21.51-1.97-1.67-4.57-3.97-9-6.88-13.12h-.01ZM93.42,68.24c-1.15,1.18-2.37,2.31-3.62,3.38-.26.22-.54.45-.81.68-.57.47-.7,1.3-.31,1.97s1.17.98,1.87.76c.77-.25,1.56-.53,2.34-.82.72-.27,1.44-.56,2.14-.87,3.04-1.31,5.95-2.93,8.66-4.79,4.44-3.05,8.26-6.69,11.41-10.81,3.4-4.45,5.87-9.32,7.37-14.52.17-.6-.08-1.25-.65-1.66-3.4-2.47-7.09-4.51-10.95-6.02-.06-.02-.12-.05-.19-.06-.46-.12-.96-.07-1.38.15-.48.25-.79.69-.85,1.18-.48,3.99-1.4,7.92-2.74,11.69-1.49,4.21-3.5,8.23-5.98,11.97-1.85,2.77-3.96,5.39-6.3,7.78h-.01ZM87.69,24.43c1.55,5.07,2.51,10.35,2.81,15.71.22,3.95.1,7.93-.39,11.83-.24,1.93-.57,3.87-.99,5.77-.09.4-.18.8-.28,1.21-.2.83.25,1.67,1.07,2.02.47.2,1.01.2,1.48,0,.3-.13.56-.34.75-.6.55-.8,1.09-1.62,1.61-2.44,2.52-4.04,4.55-8.39,6.06-12.92,1.98-5.94,3.04-12.1,3.16-18.33.13-6.91-.92-13.5-3.09-19.64-.25-.7-.94-1.14-1.76-1.12-4.93.12-9.9.95-14.74,2.45-.01,0-.02,0-.04.01-.46.15-.86.45-1.14.85-.08.11-.14.22-.2.35-.27.57-.26,1.21.02,1.7,2.33,4.06,4.24,8.48,5.67,13.13v.02ZM18.09,28.29c.46.43,1.07.62,1.62.51,4.6-.98,9.39-1.42,14.25-1.32,5.29.11,10.59.85,15.77,2.23,3.81,1.01,7.56,2.37,11.12,4.04,1.76.83,3.5,1.74,5.18,2.72.35.21.71.42,1.07.64.48.29,1.07.33,1.6.09.25-.11.47-.28.65-.49.57-.67.62-1.63.11-2.3-.59-.77-1.2-1.54-1.83-2.28-3.07-3.64-6.58-6.92-10.42-9.75-5.03-3.72-10.53-6.65-16.35-8.72-6.46-2.3-12.95-3.4-19.4-3.27-.2,0-.39.04-.58.12-.49.2-.88.64-1.05,1.2-1.51,4.74-2.35,9.78-2.46,14.89-.01.5.15.99.45,1.4.08.11.17.21.26.3h0ZM52.09,11.62c3.62,1.7,7.05,3.79,10.23,6.22,3.54,2.71,6.77,5.86,9.56,9.38,2.07,2.61,3.92,5.43,5.47,8.39.77,1.46,1.47,2.97,2.1,4.49.13.32.26.65.39.98.27.69,1.02,1.07,1.78.91.1-.02.21-.05.3-.1.61-.26,1-.83,1-1.45,0-.81-.02-1.65-.06-2.48-.2-4.09-.89-8.13-2.06-12.03-1.55-5.17-3.87-9.94-6.87-14.21-3.24-4.61-7.14-8.47-11.62-11.49-.5-.34-1.21-.3-1.76.11-3.33,2.49-6.35,5.37-8.94,8.57-.04.05-.08.11-.12.16-.25.4-.36.89-.28,1.35.09.53.41.97.86,1.18l.02.02ZM331.4,65.87c2.1-.73,3.94-2.08,5.5-4.04,1.95-2.45,2.93-5.26,2.93-8.36,0-9.62-6.09-14.49-18.1-14.49-3.53,0-7.45.47-11.66,1.4l-.55.12v45.75h2.18c4.03,0,7.3-3.27,7.3-7.3v-10.87c1.3.08,2.95.09,2.97.09h.31c.55.58,1.19,1.46,1.89,2.63l9.19,15.46h11.23l-10.76-17.31c-.89-1.42-1.7-2.43-2.44-3.07h.01ZM327.63,58.54c-1.42,1.16-3.33,1.75-5.7,1.75-1,0-1.98-.06-2.92-.17v-12.41c1.05-.18,2.1-.28,3.12-.28,5.27,0,7.84,1.91,7.84,5.83,0,2.26-.76,3.99-2.33,5.27h0ZM355.51,86.25h2.18c4.03,0,7.3-3.27,7.3-7.3v-39.24h-9.49v46.54h.01ZM403.95,61.63c-.17-.12-.34-.24-.51-.35-2.91-1.91-6.22-3.27-9.36-4.74-3.21-1.49-4.83-3.08-4.83-4.71,0-1.85.65-4.32,6.29-4.32,2.15,0,5.15.63,8.9,1.88l.65.21,2.93-8.04-.67-.23c-4.5-1.56-8.55-2.35-12.07-2.35-4.35,0-8.05,1.02-11.01,3.03-3.42,2.37-5.15,5.79-5.15,10.14,0,4.64,2.13,8.75,6.05,11.24,1.2.77,2.49,1.37,3.77,2.01,1.85.94,3.72,1.84,5.59,2.75,3.22,1.58,4.85,3.41,4.85,5.44,0,1.68-.75,2.9-2.29,3.75-2.68,1.49-6.75,1.41-11.97,0-3.47.52-6.14,3.48-6.2,7.08l.35.13c4.33,1.61,8.67,2.42,12.92,2.42,4.57,0,8.53-1.15,11.78-3.43,3.72-2.59,5.6-6.2,5.6-10.74s-1.96-8.56-5.6-11.18h-.02ZM186.15,57.92h-18.07v-18.22h-9.48v46.54h2.18c4.03,0,7.3-3.27,7.3-7.3v-12.76h18.07v20.06h9.49v-46.54h-9.49v18.22h0ZM225.47,39.7l-18.87,46.55,3.64-.03h0c3.6,0,7.65-2.92,9.05-6.53l1.9-4.94h16.11l4.4,11.48h10.56l-18.14-46.54h-8.65ZM224.56,66.23l4.75-12.57,4.8,12.57h-9.55ZM285.41,65.86c2.1-.73,3.94-2.08,5.5-4.04,1.95-2.45,2.93-5.26,2.93-8.36,0-9.62-6.09-14.49-18.1-14.49-3.53,0-7.45.47-11.66,1.4l-.55.12v45.75h2.18c4.03,0,7.3-3.27,7.3-7.3v-10.87c1.3.08,2.95.09,2.97.09h.31c.55.58,1.19,1.46,1.89,2.63l9.19,15.46h11.23l-10.76-17.31c-.89-1.42-1.7-2.43-2.44-3.07h.01ZM281.64,58.53c-1.42,1.16-3.33,1.75-5.7,1.75-1,0-1.98-.06-2.92-.17v-12.41c1.05-.18,2.1-.28,3.12-.28,5.27,0,7.84,1.91,7.84,5.83,0,2.26-.76,3.99-2.33,5.27h0Z"/>
    </g>
  </g>
</svg>